<svg xmlns="http://www.w3.org/2000/svg" width="200px" height="300px" version="1.1" viewBox="150 100 452 552">
 <path d="m389.45 341.85v-24.699c0.003906-1.0352 0.84375-1.875 1.8789-1.8789h11.277c1.0352 0.003907 1.875 0.84375 1.8789 1.8789v24.699c-0.003906 1.0352-0.84375 1.8789-1.8789 1.8789h-11.277c-1.0352 0-1.875-0.84375-1.8789-1.8789zm-124.32 67.32 221.76 0.51562-0.003906 15.953c-0.003906 2.4219-1.9648 4.3828-4.3867 4.3867h-212.98c-2.418-0.003907-4.3828-1.9648-4.3828-4.3867zm97.395 13.043h18.793v-3.7578h-18.793zm124.36-128.12v111.84l-221.76-0.51562 0.003906-111.32c0-2.4219 1.9648-4.3828 4.3828-4.3867h212.98c2.4219 0.003906 4.3867 1.9648 4.3867 4.3867zm-63.602 37.293h18.793v16.914h3.7578v-37.586h-3.7578v16.914h-15.035v-16.914h-3.7578zm-37.586 10.469c0.003906 3.1133 2.5273 5.6328 5.6367 5.6367h11.277c3.1133-0.003906 5.6328-2.5234 5.6367-5.6367v-24.699c-0.003907-3.1133-2.5234-5.6328-5.6367-5.6367h-11.277c-3.1094 0.003906-5.6328 2.5234-5.6367 5.6367zm-99.855-18.379 2.7539-2.5547-5.125-5.5195 5.2031-6.4102-2.9141-2.3711-7.2695 8.9414zm1.8477 21.363c-0.003906 2.5039 1.5039 4.7578 3.8164 5.7148 2.3125 0.96094 4.9727 0.42969 6.7422-1.3398 1.7695-1.7695 2.3008-4.4297 1.3438-6.7422-0.96094-2.3125-3.2148-3.8203-5.7188-3.8164-3.4141 0.003906-6.1797 2.7695-6.1836 6.1836zm12.762 26.234c0-2.5039-1.5078-4.7578-3.8203-5.7148-2.3086-0.95703-4.9688-0.42969-6.7383 1.3398-1.7695 1.7695-2.2969 4.4297-1.3398 6.7383 0.95703 2.3125 3.2109 3.8203 5.7109 3.8203 3.4141-0.003906 6.1836-2.7695 6.1875-6.1836zm0.98828-62.57-3.4883-1.3945-5.7578 14.395 3.4883 1.3945zm14.832 7.0664-8.4883-9.0469-2.7383 2.5703 5.9062 6.3008-5.8164 5.4336 2.5625 2.7461zm31.84 15.816h18.793v16.914h3.7578v-37.586h-3.7578v16.914h-15.035v-16.914h-3.7578zm1.8789 36.957v3.7578h25.059v-3.7578zm112.76 25.059h-112.76v3.7578h112.76zm0-12.531h-112.76v3.7578h112.76zm0-12.527h-75.172v3.7578h75.172zm-117.75 66.406-11.027 27.559h75.887l-11.027-27.559z"/>
</svg>